<mxfile host="app.diagrams.net" agent="Mozilla/5.0 (Windows NT 10.0; Win64; x64; rv:139.0) Gecko/20100101 Firefox/139.0" version="27.1.3">
  <diagram name="Strona-1" id="ORUs0IyyHJ8kYy_XAsuE">
    <mxGraphModel dx="1733" dy="448" grid="1" gridSize="10" guides="1" tooltips="1" connect="1" arrows="1" fold="1" page="1" pageScale="1" pageWidth="827" pageHeight="1169" math="0" shadow="0">
      <root>
        <mxCell id="0" />
        <mxCell id="1" parent="0" />
        <mxCell id="YDspIKpdxO8EV3Twf1JT-1" value="&lt;p style=&quot;margin:0px;margin-top:4px;text-align:center;&quot;&gt;&lt;b&gt;AllTests&lt;/b&gt;&lt;/p&gt;&lt;hr size=&quot;1&quot;/&gt;&lt;p style=&quot;margin:0 0 0 4px;line-height:1.6;&quot;&gt;+ AllTests(): &lt;/p&gt;&lt;hr size=&quot;1&quot;/&gt;&lt;p style=&quot;margin:0 0 0 4px;line-height:1.6;&quot;&gt;+ testClearAllEmptiesData(): void&lt;br/&gt;+ testPickRandomStopsSubsetReturnsCorrectSize(): void&lt;br/&gt;+ testLoadRoutesReturnsCorrectSize(): void&lt;br/&gt;+ testSimulationStepAddsPassengersAndUpdatesState(): void&lt;/p&gt;" style="verticalAlign=top;align=left;overflow=fill;fontSize=14;fontFamily=Helvetica;html=1;rounded=0;shadow=0;comic=0;labelBackgroundColor=none;strokeWidth=1;" parent="1" vertex="1">
          <mxGeometry x="662" y="1795" width="450" height="162" as="geometry" />
        </mxCell>
        <mxCell id="YDspIKpdxO8EV3Twf1JT-2" value="&lt;p style=&quot;margin:0px;margin-top:4px;text-align:center;&quot;&gt;&lt;b&gt;Bus&lt;/b&gt;&lt;/p&gt;&lt;hr size=&quot;1&quot;/&gt;&lt;p style=&quot;margin:0 0 0 4px;line-height:1.6;&quot;&gt;+ Bus(String, List&amp;lt;Station&amp;gt;, int): &lt;/p&gt;" style="verticalAlign=top;align=left;overflow=fill;fontSize=14;fontFamily=Helvetica;html=1;rounded=0;shadow=0;comic=0;labelBackgroundColor=none;strokeWidth=1;" parent="1" vertex="1">
          <mxGeometry x="249" y="1129" width="261" height="70" as="geometry" />
        </mxCell>
        <mxCell id="YDspIKpdxO8EV3Twf1JT-3" value="&lt;p style=&quot;margin:0px;margin-top:4px;text-align:center;&quot;&gt;&lt;b&gt;Controller&lt;/b&gt;&lt;/p&gt;&lt;hr size=&quot;1&quot;/&gt;&lt;p style=&quot;margin:0 0 0 4px;line-height:1.6;&quot;&gt;+ Controller(): &lt;/p&gt;&lt;hr size=&quot;1&quot;/&gt;&lt;p style=&quot;margin:0 0 0 4px;line-height:1.6;&quot;&gt;+ checkPassengers(List&amp;lt;Passenger&amp;gt;): int&lt;/p&gt;" style="verticalAlign=top;align=left;overflow=fill;fontSize=14;fontFamily=Helvetica;html=1;rounded=0;shadow=0;comic=0;labelBackgroundColor=none;strokeWidth=1;" parent="1" vertex="1">
          <mxGeometry x="-416" y="790" width="426" height="97" as="geometry" />
        </mxCell>
        <mxCell id="YDspIKpdxO8EV3Twf1JT-4" value="&lt;p style=&quot;margin:0px;margin-top:4px;text-align:center;&quot;&gt;&lt;b&gt;CsvLoader&lt;/b&gt;&lt;/p&gt;&lt;hr size=&quot;1&quot;/&gt;&lt;p style=&quot;margin:0 0 0 4px;line-height:1.6;&quot;&gt;+ CsvLoader(): &lt;/p&gt;&lt;hr size=&quot;1&quot;/&gt;&lt;p style=&quot;margin:0 0 0 4px;line-height:1.6;&quot;&gt;+ loadRoutes(String): List&amp;lt;List&amp;lt;Station&amp;gt;&amp;gt;&lt;br/&gt;+ loadProperties(String): List&amp;lt;int[]&amp;gt;&lt;br/&gt;+ loadSurnames(String): List&amp;lt;String&amp;gt;&lt;br/&gt;+ loadNames(String): List&amp;lt;String&amp;gt;&lt;/p&gt;" style="verticalAlign=top;align=left;overflow=fill;fontSize=14;fontFamily=Helvetica;html=1;rounded=0;shadow=0;comic=0;labelBackgroundColor=none;strokeWidth=1;" parent="1" vertex="1">
          <mxGeometry x="-416" y="1032" width="426" height="162" as="geometry" />
        </mxCell>
        <mxCell id="YDspIKpdxO8EV3Twf1JT-5" value="&lt;p style=&quot;margin:0px;margin-top:4px;text-align:center;&quot;&gt;&lt;b&gt;CsvSaver&lt;/b&gt;&lt;/p&gt;&lt;hr size=&quot;1&quot;/&gt;&lt;p style=&quot;margin:0 0 0 4px;line-height:1.6;&quot;&gt;+ CsvSaver(): &lt;/p&gt;&lt;hr size=&quot;1&quot;/&gt;&lt;p style=&quot;margin:0 0 0 4px;line-height:1.6;&quot;&gt;+ saveControlResults(Map&amp;lt;String, Map&amp;lt;String, Integer&amp;gt;&amp;gt;, Map&amp;lt;String, Integer&amp;gt;, int, int, int): void&lt;/p&gt;" style="verticalAlign=top;align=left;overflow=fill;fontSize=14;fontFamily=Helvetica;html=1;rounded=0;shadow=0;comic=0;labelBackgroundColor=none;strokeWidth=1;" parent="1" vertex="1">
          <mxGeometry x="-416" y="911" width="426" height="97" as="geometry" />
        </mxCell>
        <mxCell id="YDspIKpdxO8EV3Twf1JT-6" value="&lt;p style=&quot;margin:0px;margin-top:4px;text-align:center;&quot;&gt;&lt;b&gt;GuiLauncher&lt;/b&gt;&lt;/p&gt;&lt;hr size=&quot;1&quot;/&gt;&lt;p style=&quot;margin:0 0 0 4px;line-height:1.6;&quot;&gt;+ GuiLauncher(): &lt;/p&gt;&lt;hr size=&quot;1&quot;/&gt;&lt;p style=&quot;margin:0 0 0 4px;line-height:1.6;&quot;&gt;- availableRoutes: List&amp;lt;List&amp;lt;Station&amp;gt;&amp;gt;&lt;br/&gt;- fleet: List&amp;lt;Vehicle&amp;gt;&lt;br/&gt;- vehicleStats: List&amp;lt;int[]&amp;gt;&lt;br/&gt;- vehicleStatusBox: VBox&lt;/p&gt;&lt;hr size=&quot;1&quot;/&gt;&lt;p style=&quot;margin:0 0 0 4px;line-height:1.6;&quot;&gt;+ start(Stage): void&lt;br/&gt;- showMainGui(Stage, int, int, boolean, boolean): void&lt;br/&gt;- updateVehicleStatus(): void&lt;br/&gt;- showStartupDialog(Stage): void&lt;br/&gt;- runSimulation(int, int, boolean, boolean, TextArea): void&lt;br/&gt;+ main(String[]): void&lt;br/&gt;+ launchGui(): void&lt;/p&gt;" style="verticalAlign=top;align=left;overflow=fill;fontSize=14;fontFamily=Helvetica;html=1;rounded=0;shadow=0;comic=0;labelBackgroundColor=none;strokeWidth=1;" parent="1" vertex="1">
          <mxGeometry x="172" y="1839" width="415" height="331" as="geometry" />
        </mxCell>
        <mxCell id="YDspIKpdxO8EV3Twf1JT-7" value="&lt;p style=&quot;margin:0px;margin-top:4px;text-align:center;&quot;&gt;&lt;i&gt;&amp;lt;&amp;lt;interface&amp;gt;&amp;gt;&lt;/i&gt;&lt;br/&gt;&lt;b&gt;InterfaceVehicle&lt;/b&gt;&lt;/p&gt;&lt;hr size=&quot;1&quot;/&gt;&lt;p style=&quot;margin:0 0 0 4px;line-height:1.6;&quot;&gt;+ unloadPassengers(): void&lt;br/&gt;+ getCurrentStationNumber(): int&lt;br/&gt;+ getRoute(): List&amp;lt;Station&amp;gt;&lt;br/&gt;+ getCurrentStation(): Station&lt;br/&gt;+ nextStation(): void&lt;br/&gt;+ getPassengers(): List&amp;lt;Passenger&amp;gt;&lt;br/&gt;+ getCapacity(): Integer&lt;br/&gt;+ isActive(): boolean&lt;br/&gt;+ getName(): String&lt;br/&gt;+ boardPassenger(Passenger): void&lt;/p&gt;" style="verticalAlign=top;align=left;overflow=fill;fontSize=14;fontFamily=Helvetica;html=1;rounded=0;shadow=0;comic=0;labelBackgroundColor=none;strokeWidth=1;" parent="1" vertex="1">
          <mxGeometry x="705" y="755" width="364" height="281" as="geometry" />
        </mxCell>
        <mxCell id="YDspIKpdxO8EV3Twf1JT-8" value="&lt;p style=&quot;margin:0px;margin-top:4px;text-align:center;&quot;&gt;&lt;b&gt;Main&lt;/b&gt;&lt;/p&gt;&lt;hr size=&quot;1&quot;/&gt;&lt;p style=&quot;margin:0 0 0 4px;line-height:1.6;&quot;&gt;+ Main(): &lt;/p&gt;&lt;hr size=&quot;1&quot;/&gt;&lt;p style=&quot;margin:0 0 0 4px;line-height:1.6;&quot;&gt;+ main(String[]): void&lt;br/&gt;- stepThroughSimulation(Simulation, Scanner): void&lt;br/&gt;- getUserNumber(Scanner, String, int, int): int&lt;br/&gt;- getSimulationMode(Scanner): String&lt;br/&gt;- promptYesNo(Scanner, String): boolean&lt;br/&gt;+ pickRandomStopsSubset(List&amp;lt;Station&amp;gt;, int): List&amp;lt;Station&amp;gt;&lt;br/&gt;- runAutoSimulation(Simulation, Scanner): void&lt;br/&gt;- askToRestart(Scanner): boolean&lt;/p&gt;" style="verticalAlign=top;align=left;overflow=fill;fontSize=14;fontFamily=Helvetica;html=1;rounded=0;shadow=0;comic=0;labelBackgroundColor=none;strokeWidth=1;" parent="1" vertex="1">
          <mxGeometry x="-416" y="1860" width="426" height="258" as="geometry" />
        </mxCell>
        <mxCell id="YDspIKpdxO8EV3Twf1JT-9" value="&lt;p style=&quot;margin:0px;margin-top:4px;text-align:center;&quot;&gt;&lt;b&gt;MainViewController&lt;/b&gt;&lt;/p&gt;&lt;hr size=&quot;1&quot;/&gt;&lt;p style=&quot;margin:0 0 0 4px;line-height:1.6;&quot;&gt;+ MainViewController(): &lt;/p&gt;&lt;hr size=&quot;1&quot;/&gt;&lt;p style=&quot;margin:0 0 0 4px;line-height:1.6;&quot;&gt;+ onAutoMode(): void&lt;br/&gt;- runSimulation(String): void&lt;br/&gt;+ onManualMode(): void&lt;/p&gt;" style="verticalAlign=top;align=left;overflow=fill;fontSize=14;fontFamily=Helvetica;html=1;rounded=0;shadow=0;comic=0;labelBackgroundColor=none;strokeWidth=1;" parent="1" vertex="1">
          <mxGeometry x="249" y="1324" width="261" height="149" as="geometry" />
        </mxCell>
        <mxCell id="YDspIKpdxO8EV3Twf1JT-10" value="&lt;p style=&quot;margin:0px;margin-top:4px;text-align:center;&quot;&gt;&lt;b&gt;Passenger&lt;/b&gt;&lt;/p&gt;&lt;hr size=&quot;1&quot;/&gt;&lt;p style=&quot;margin:0 0 0 4px;line-height:1.6;&quot;&gt;+ Passenger(String, String, boolean): &lt;/p&gt;&lt;hr size=&quot;1&quot;/&gt;&lt;p style=&quot;margin:0 0 0 4px;line-height:1.6;&quot;&gt;- hasTicket: boolean&lt;br/&gt;- fullName: String&lt;br/&gt;- destination: String&lt;/p&gt;&lt;hr size=&quot;1&quot;/&gt;&lt;p style=&quot;margin:0 0 0 4px;line-height:1.6;&quot;&gt;+ hasTicket(): boolean&lt;br/&gt;+ getDestination(): String&lt;br/&gt;+ getName(): String&lt;/p&gt;" style="verticalAlign=top;align=left;overflow=fill;fontSize=14;fontFamily=Helvetica;html=1;rounded=0;shadow=0;comic=0;labelBackgroundColor=none;strokeWidth=1;" parent="1" vertex="1">
          <mxGeometry x="239" y="803" width="281" height="211" as="geometry" />
        </mxCell>
        <mxCell id="YDspIKpdxO8EV3Twf1JT-11" value="&lt;p style=&quot;margin:0px;margin-top:4px;text-align:center;&quot;&gt;&lt;b&gt;Simulation&lt;/b&gt;&lt;/p&gt;&lt;hr size=&quot;1&quot;/&gt;&lt;p style=&quot;margin:0 0 0 4px;line-height:1.6;&quot;&gt;+ Simulation(List&amp;lt;Vehicle&amp;gt;, double): &lt;/p&gt;&lt;hr size=&quot;1&quot;/&gt;&lt;p style=&quot;margin:0 0 0 4px;line-height:1.6;&quot;&gt;- ticketProbability: double&lt;br/&gt;- boughtTicketsMap: Map&amp;lt;String, Integer&amp;gt;&lt;br/&gt;- controlResults: Map&amp;lt;String, Map&amp;lt;String, Integer&amp;gt;&amp;gt;&lt;br/&gt;- earnings: int&lt;br/&gt;- totalCaptures: int&lt;br/&gt;- totalBoughtTickets: int&lt;br/&gt;- vehicles: List&amp;lt;Vehicle&amp;gt;&lt;br/&gt;- rand: Random&lt;br/&gt;- controllerChance: double&lt;/p&gt;&lt;hr size=&quot;1&quot;/&gt;&lt;p style=&quot;margin:0 0 0 4px;line-height:1.6;&quot;&gt;+ genPassengers(Vehicle, List&amp;lt;String&amp;gt;, List&amp;lt;String&amp;gt;): void&lt;br/&gt;+ summary(): void&lt;br/&gt;+ controlEvent(Vehicle): void&lt;br/&gt;+ clearAll(): void&lt;br/&gt;+ step(): void&lt;/p&gt;" style="verticalAlign=top;align=left;overflow=fill;fontSize=14;fontFamily=Helvetica;html=1;rounded=0;shadow=0;comic=0;labelBackgroundColor=none;strokeWidth=1;" parent="1" vertex="1">
          <mxGeometry x="-416" y="1279" width="426" height="403" as="geometry" />
        </mxCell>
        <mxCell id="YDspIKpdxO8EV3Twf1JT-12" value="&lt;p style=&quot;margin:0px;margin-top:4px;text-align:center;&quot;&gt;&lt;b&gt;Station&lt;/b&gt;&lt;/p&gt;&lt;hr size=&quot;1&quot;/&gt;&lt;p style=&quot;margin:0 0 0 4px;line-height:1.6;&quot;&gt;+ Station(String, double): &lt;/p&gt;&lt;hr size=&quot;1&quot;/&gt;&lt;p style=&quot;margin:0 0 0 4px;line-height:1.6;&quot;&gt;- name: String&lt;br/&gt;- popularity: double&lt;/p&gt;&lt;hr size=&quot;1&quot;/&gt;&lt;p style=&quot;margin:0 0 0 4px;line-height:1.6;&quot;&gt;+ toString(): String&lt;br/&gt;+ getPopularity(): double&lt;br/&gt;+ getName(): String&lt;/p&gt;" style="verticalAlign=top;align=left;overflow=fill;fontSize=14;fontFamily=Helvetica;html=1;rounded=0;shadow=0;comic=0;labelBackgroundColor=none;strokeWidth=1;" parent="1" vertex="1">
          <mxGeometry x="249" y="1495" width="261" height="187" as="geometry" />
        </mxCell>
        <mxCell id="YDspIKpdxO8EV3Twf1JT-13" value="&lt;p style=&quot;margin:0px;margin-top:4px;text-align:center;&quot;&gt;&lt;b&gt;Tram&lt;/b&gt;&lt;/p&gt;&lt;hr size=&quot;1&quot;/&gt;&lt;p style=&quot;margin:0 0 0 4px;line-height:1.6;&quot;&gt;+ Tram(String, List&amp;lt;Station&amp;gt;, int): &lt;/p&gt;" style="verticalAlign=top;align=left;overflow=fill;fontSize=14;fontFamily=Helvetica;html=1;rounded=0;shadow=0;comic=0;labelBackgroundColor=none;strokeWidth=1;" parent="1" vertex="1">
          <mxGeometry x="249" y="1227" width="261" height="70" as="geometry" />
        </mxCell>
        <mxCell id="YDspIKpdxO8EV3Twf1JT-14" value="&lt;p style=&quot;margin:0px;margin-top:4px;text-align:center;&quot;&gt;&lt;b&gt;Vehicle&lt;/b&gt;&lt;/p&gt;&lt;hr size=&quot;1&quot;/&gt;&lt;p style=&quot;margin:0 0 0 4px;line-height:1.6;&quot;&gt;+ Vehicle(String, List&amp;lt;Station&amp;gt;, int): &lt;/p&gt;&lt;hr size=&quot;1&quot;/&gt;&lt;p style=&quot;margin:0 0 0 4px;line-height:1.6;&quot;&gt;# currentStationNumber: int&lt;br/&gt;+ capacity: int&lt;br/&gt;# active: boolean&lt;br/&gt;# name: String&lt;br/&gt;- boughtTickets: int&lt;br/&gt;+ route: List&amp;lt;Station&amp;gt;&lt;br/&gt;+ passengers: List&amp;lt;Passenger&amp;gt;&lt;/p&gt;&lt;hr size=&quot;1&quot;/&gt;&lt;p style=&quot;margin:0 0 0 4px;line-height:1.6;&quot;&gt;+ getRoute(): List&amp;lt;Station&amp;gt;&lt;br/&gt;+ unloadPassengers(): void&lt;br/&gt;+ getCurrentStationNumber(): int&lt;br/&gt;+ getName(): String&lt;br/&gt;+ isActive(): boolean&lt;br/&gt;+ getCapacity(): Integer&lt;br/&gt;+ getPassengers(): List&amp;lt;Passenger&amp;gt;&lt;br/&gt;+ incrementBoughtTickets(): void&lt;br/&gt;+ getBoughtTickets(): int&lt;br/&gt;+ getCurrentStation(): Station&lt;br/&gt;+ boardPassenger(Passenger): void&lt;br/&gt;+ nextStation(): void&lt;/p&gt;" style="verticalAlign=top;align=left;overflow=fill;fontSize=14;fontFamily=Helvetica;html=1;rounded=0;shadow=0;comic=0;labelBackgroundColor=none;strokeWidth=1;" parent="1" vertex="1">
          <mxGeometry x="705" y="1129" width="364" height="553" as="geometry" />
        </mxCell>
        <mxCell id="YDspIKpdxO8EV3Twf1JT-15" value="" style="html=1;rounded=1;edgeStyle=orthogonalEdgeStyle;dashed=1;startArrow=none;endArrow=openThin;endSize=12;strokeColor=#595959;exitX=0.000;exitY=0.500;exitDx=0;exitDy=0;" parent="1" source="YDspIKpdxO8EV3Twf1JT-1" edge="1">
          <mxGeometry width="50" height="50" relative="1" as="geometry">
            <Array as="points">
              <mxPoint x="662" y="1877" />
              <mxPoint x="624" y="1877" />
              <mxPoint x="624" y="1790" />
              <mxPoint x="150" y="1790" />
              <mxPoint x="150" y="1170" />
            </Array>
            <mxPoint x="250" y="1170" as="targetPoint" />
          </mxGeometry>
        </mxCell>
        <mxCell id="YDspIKpdxO8EV3Twf1JT-16" value="«create»" style="edgeLabel;resizable=0;html=1;align=left;verticalAlign=top;strokeColor=default;" parent="YDspIKpdxO8EV3Twf1JT-15" vertex="1" connectable="0">
          <mxGeometry x="166" y="1639" as="geometry" />
        </mxCell>
        <mxCell id="YDspIKpdxO8EV3Twf1JT-17" value="" style="html=1;rounded=1;edgeStyle=orthogonalEdgeStyle;dashed=1;startArrow=none;endArrow=openThin;endSize=12;strokeColor=#595959;entryX=1.000;entryY=0.500;entryDx=0;entryDy=0;" parent="1" edge="1">
          <mxGeometry width="50" height="50" relative="1" as="geometry">
            <Array as="points">
              <mxPoint x="887" y="2203" />
              <mxPoint x="30" y="2203" />
              <mxPoint x="30" y="1129" />
            </Array>
            <mxPoint x="887" y="1960" as="sourcePoint" />
            <mxPoint x="10.000000000000227" y="1129" as="targetPoint" />
          </mxGeometry>
        </mxCell>
        <mxCell id="YDspIKpdxO8EV3Twf1JT-18" value="" style="html=1;rounded=1;edgeStyle=orthogonalEdgeStyle;dashed=1;startArrow=none;endArrow=openThin;endSize=12;strokeColor=#595959;exitX=0.529;exitY=0.995;exitDx=0;exitDy=0;entryX=0.500;entryY=1.000;entryDx=0;entryDy=0;exitPerimeter=0;" parent="1" source="YDspIKpdxO8EV3Twf1JT-1" target="YDspIKpdxO8EV3Twf1JT-8" edge="1">
          <mxGeometry width="50" height="50" relative="1" as="geometry">
            <Array as="points">
              <mxPoint x="900" y="2217" />
              <mxPoint x="-203" y="2217" />
            </Array>
          </mxGeometry>
        </mxCell>
        <mxCell id="YDspIKpdxO8EV3Twf1JT-19" value="" style="html=1;rounded=1;edgeStyle=orthogonalEdgeStyle;dashed=1;startArrow=none;endArrow=openThin;endSize=12;strokeColor=#595959;exitX=0.500;exitY=0.000;exitDx=0;exitDy=0;entryX=0.500;entryY=1.000;entryDx=0;entryDy=0;" parent="1" source="YDspIKpdxO8EV3Twf1JT-1" target="YDspIKpdxO8EV3Twf1JT-11" edge="1">
          <mxGeometry width="50" height="50" relative="1" as="geometry">
            <Array as="points">
              <mxPoint x="887" y="1739" />
              <mxPoint x="-203" y="1739" />
            </Array>
          </mxGeometry>
        </mxCell>
        <mxCell id="YDspIKpdxO8EV3Twf1JT-20" value="«create»" style="edgeLabel;resizable=0;html=1;align=left;verticalAlign=top;strokeColor=default;" parent="YDspIKpdxO8EV3Twf1JT-19" vertex="1" connectable="0">
          <mxGeometry x="-228" y="1716" as="geometry" />
        </mxCell>
        <mxCell id="YDspIKpdxO8EV3Twf1JT-21" value="" style="html=1;rounded=1;edgeStyle=orthogonalEdgeStyle;dashed=1;startArrow=none;endArrow=openThin;endSize=12;strokeColor=#595959;exitX=0.000;exitY=0.034;exitDx=0;exitDy=0;entryX=1.000;entryY=0.500;entryDx=0;entryDy=0;" parent="1" source="YDspIKpdxO8EV3Twf1JT-1" target="YDspIKpdxO8EV3Twf1JT-12" edge="1">
          <mxGeometry width="50" height="50" relative="1" as="geometry">
            <Array as="points">
              <mxPoint x="579" y="1801" />
              <mxPoint x="579" y="1588" />
            </Array>
          </mxGeometry>
        </mxCell>
        <mxCell id="YDspIKpdxO8EV3Twf1JT-22" value="«create»" style="edgeLabel;resizable=0;html=1;align=left;verticalAlign=top;strokeColor=default;" parent="YDspIKpdxO8EV3Twf1JT-21" vertex="1" connectable="0">
          <mxGeometry x="534" y="1568" as="geometry" />
        </mxCell>
        <mxCell id="YDspIKpdxO8EV3Twf1JT-23" value="" style="html=1;rounded=1;edgeStyle=orthogonalEdgeStyle;dashed=1;startArrow=none;endArrow=openThin;endSize=12;strokeColor=#595959;" parent="1" edge="1">
          <mxGeometry width="50" height="50" relative="1" as="geometry">
            <Array as="points">
              <mxPoint x="970" y="1683" />
            </Array>
            <mxPoint x="970" y="1790" as="sourcePoint" />
            <mxPoint x="970" y="1683" as="targetPoint" />
          </mxGeometry>
        </mxCell>
        <mxCell id="YDspIKpdxO8EV3Twf1JT-24" value="" style="html=1;rounded=1;edgeStyle=orthogonalEdgeStyle;dashed=1;startArrow=none;endArrow=openThin;endSize=12;strokeColor=#595959;exitX=0.000;exitY=0.500;exitDx=0;exitDy=0;" parent="1" source="YDspIKpdxO8EV3Twf1JT-2" target="YDspIKpdxO8EV3Twf1JT-12" edge="1">
          <mxGeometry width="50" height="50" relative="1" as="geometry">
            <Array as="points">
              <mxPoint x="249" y="1162" />
              <mxPoint x="110" y="1162" />
              <mxPoint x="110" y="1540" />
            </Array>
          </mxGeometry>
        </mxCell>
        <mxCell id="YDspIKpdxO8EV3Twf1JT-25" value="" style="html=1;rounded=1;edgeStyle=orthogonalEdgeStyle;dashed=0;startArrow=none;endArrow=block;endSize=12;strokeColor=#000082;exitX=1.000;exitY=0.500;exitDx=0;exitDy=0;entryX=0.000;entryY=0.184;entryDx=0;entryDy=0;" parent="1" source="YDspIKpdxO8EV3Twf1JT-2" target="YDspIKpdxO8EV3Twf1JT-14" edge="1">
          <mxGeometry width="50" height="50" relative="1" as="geometry">
            <Array as="points">
              <mxPoint x="553" y="1162" />
              <mxPoint x="553" y="1231" />
            </Array>
          </mxGeometry>
        </mxCell>
        <mxCell id="YDspIKpdxO8EV3Twf1JT-26" value="" style="html=1;rounded=1;edgeStyle=orthogonalEdgeStyle;dashed=1;startArrow=none;endArrow=openThin;endSize=12;strokeColor=#595959;exitX=0.500;exitY=0.000;exitDx=0;exitDy=0;entryX=0.500;entryY=0.000;entryDx=0;entryDy=0;" parent="1" source="YDspIKpdxO8EV3Twf1JT-3" target="YDspIKpdxO8EV3Twf1JT-10" edge="1">
          <mxGeometry width="50" height="50" relative="1" as="geometry">
            <Array as="points">
              <mxPoint x="-203" y="704" />
              <mxPoint x="379" y="704" />
            </Array>
          </mxGeometry>
        </mxCell>
        <mxCell id="YDspIKpdxO8EV3Twf1JT-27" value="" style="html=1;rounded=1;edgeStyle=orthogonalEdgeStyle;dashed=1;startArrow=none;endArrow=openThin;endSize=12;strokeColor=#595959;exitX=1.000;exitY=0.500;exitDx=0;exitDy=0;entryX=1.000;entryY=0.500;entryDx=0;entryDy=0;" parent="1" source="YDspIKpdxO8EV3Twf1JT-4" target="YDspIKpdxO8EV3Twf1JT-4" edge="1">
          <mxGeometry width="50" height="50" relative="1" as="geometry">
            <Array as="points">
              <mxPoint x="53" y="1113" />
              <mxPoint x="53" y="1113" />
            </Array>
          </mxGeometry>
        </mxCell>
        <mxCell id="YDspIKpdxO8EV3Twf1JT-28" value="" style="html=1;rounded=1;edgeStyle=orthogonalEdgeStyle;dashed=1;startArrow=none;endArrow=openThin;endSize=12;strokeColor=#595959;exitX=1.000;exitY=0.407;exitDx=0;exitDy=0;entryX=1.000;entryY=0.500;entryDx=0;entryDy=0;" parent="1" source="YDspIKpdxO8EV3Twf1JT-4" target="YDspIKpdxO8EV3Twf1JT-12" edge="1">
          <mxGeometry width="50" height="50" relative="1" as="geometry">
            <Array as="points">
              <mxPoint x="579" y="1098" />
              <mxPoint x="579" y="1588" />
            </Array>
          </mxGeometry>
        </mxCell>
        <mxCell id="YDspIKpdxO8EV3Twf1JT-29" value="«create»" style="edgeLabel;resizable=0;html=1;align=left;verticalAlign=top;strokeColor=default;" parent="YDspIKpdxO8EV3Twf1JT-28" vertex="1" connectable="0">
          <mxGeometry x="499" y="1078" as="geometry" />
        </mxCell>
        <mxCell id="YDspIKpdxO8EV3Twf1JT-30" value="" style="html=1;rounded=1;edgeStyle=orthogonalEdgeStyle;dashed=1;startArrow=none;endArrow=openThin;endSize=12;strokeColor=#595959;exitX=0.536;exitY=0.000;exitDx=0;exitDy=0;entryX=0.002;entryY=0.848;entryDx=0;entryDy=0;entryPerimeter=0;" parent="1" source="YDspIKpdxO8EV3Twf1JT-6" target="YDspIKpdxO8EV3Twf1JT-2" edge="1">
          <mxGeometry width="50" height="50" relative="1" as="geometry">
            <Array as="points">
              <mxPoint x="394" y="1810" />
              <mxPoint x="170" y="1810" />
              <mxPoint x="170" y="1188" />
            </Array>
          </mxGeometry>
        </mxCell>
        <mxCell id="YDspIKpdxO8EV3Twf1JT-31" value="«create»" style="edgeLabel;resizable=0;html=1;align=left;verticalAlign=top;strokeColor=default;" parent="YDspIKpdxO8EV3Twf1JT-30" vertex="1" connectable="0">
          <mxGeometry x="179" y="1114" as="geometry" />
        </mxCell>
        <mxCell id="YDspIKpdxO8EV3Twf1JT-32" value="" style="html=1;rounded=1;edgeStyle=orthogonalEdgeStyle;dashed=1;startArrow=none;endArrow=openThin;endSize=12;strokeColor=#595959;exitX=0.000;exitY=0.545;exitDx=0;exitDy=0;entryX=1.002;entryY=0.3;entryDx=0;entryDy=0;entryPerimeter=0;" parent="1" target="YDspIKpdxO8EV3Twf1JT-4" edge="1">
          <mxGeometry width="50" height="50" relative="1" as="geometry">
            <Array as="points">
              <mxPoint x="192" y="2010" />
              <mxPoint x="70" y="2010" />
              <mxPoint x="70" y="1080" />
              <mxPoint x="30" y="1080" />
            </Array>
            <mxPoint x="192" y="2019.395" as="sourcePoint" />
            <mxPoint x="30" y="1070" as="targetPoint" />
          </mxGeometry>
        </mxCell>
        <mxCell id="YDspIKpdxO8EV3Twf1JT-34" value="" style="html=1;rounded=1;edgeStyle=orthogonalEdgeStyle;dashed=1;startArrow=none;endArrow=openThin;endSize=12;strokeColor=#595959;exitX=0.75;exitY=0;exitDx=0;exitDy=0;entryX=0.500;entryY=1.000;entryDx=0;entryDy=0;" parent="1" source="YDspIKpdxO8EV3Twf1JT-6" target="YDspIKpdxO8EV3Twf1JT-11" edge="1">
          <mxGeometry width="50" height="50" relative="1" as="geometry">
            <Array as="points">
              <mxPoint x="483" y="1750" />
              <mxPoint x="-203" y="1750" />
            </Array>
          </mxGeometry>
        </mxCell>
        <mxCell id="YDspIKpdxO8EV3Twf1JT-35" value="«create»" style="edgeLabel;resizable=0;html=1;align=left;verticalAlign=top;strokeColor=default;" parent="YDspIKpdxO8EV3Twf1JT-34" vertex="1" connectable="0">
          <mxGeometry x="329" y="1793" as="geometry" />
        </mxCell>
        <mxCell id="YDspIKpdxO8EV3Twf1JT-36" value="" style="html=1;rounded=1;edgeStyle=orthogonalEdgeStyle;dashed=1;startArrow=none;endArrow=openThin;endSize=12;strokeColor=#595959;exitX=0.001;exitY=0.445;exitDx=0;exitDy=0;exitPerimeter=0;" parent="1" source="YDspIKpdxO8EV3Twf1JT-6" edge="1">
          <mxGeometry width="50" height="50" relative="1" as="geometry">
            <Array as="points">
              <mxPoint x="172" y="1990" />
              <mxPoint x="110" y="1990" />
              <mxPoint x="110" y="1620" />
              <mxPoint x="224" y="1620" />
              <mxPoint x="250" y="1621" />
            </Array>
            <mxPoint x="250" y="1621" as="targetPoint" />
          </mxGeometry>
        </mxCell>
        <mxCell id="YDspIKpdxO8EV3Twf1JT-37" value="" style="html=1;rounded=1;edgeStyle=orthogonalEdgeStyle;dashed=1;startArrow=none;endArrow=openThin;endSize=12;strokeColor=#595959;exitX=0.389;exitY=0.000;exitDx=0;exitDy=0;entryX=0;entryY=0.5;entryDx=0;entryDy=0;" parent="1" source="YDspIKpdxO8EV3Twf1JT-6" target="YDspIKpdxO8EV3Twf1JT-13" edge="1">
          <mxGeometry width="50" height="50" relative="1" as="geometry">
            <Array as="points">
              <mxPoint x="333" y="1754" />
              <mxPoint x="210" y="1754" />
              <mxPoint x="210" y="1262" />
            </Array>
          </mxGeometry>
        </mxCell>
        <mxCell id="YDspIKpdxO8EV3Twf1JT-38" value="«create»" style="edgeLabel;resizable=0;html=1;align=left;verticalAlign=top;strokeColor=default;rotation=90;" parent="YDspIKpdxO8EV3Twf1JT-37" vertex="1" connectable="0">
          <mxGeometry x="190" y="1340" as="geometry" />
        </mxCell>
        <mxCell id="YDspIKpdxO8EV3Twf1JT-39" value="" style="html=1;rounded=1;edgeStyle=orthogonalEdgeStyle;dashed=0;startArrow=diamondThinstartSize=12;endArrow=openThin;endSize=12;strokeColor=#595959;exitX=1.000;exitY=0.789;exitDx=0;exitDy=0;" parent="1" source="YDspIKpdxO8EV3Twf1JT-6" edge="1">
          <mxGeometry width="50" height="50" relative="1" as="geometry">
            <Array as="points">
              <mxPoint x="1172" y="2100" />
              <mxPoint x="1172" y="1739" />
              <mxPoint x="1027" y="1739" />
            </Array>
            <mxPoint x="1027" y="1682" as="targetPoint" />
          </mxGeometry>
        </mxCell>
        <mxCell id="YDspIKpdxO8EV3Twf1JT-40" value="1" style="edgeLabel;resizable=0;html=1;align=left;verticalAlign=top;strokeColor=default;" parent="YDspIKpdxO8EV3Twf1JT-39" vertex="1" connectable="0">
          <mxGeometry x="1176" y="1999" as="geometry" />
        </mxCell>
        <mxCell id="YDspIKpdxO8EV3Twf1JT-41" value="*" style="edgeLabel;resizable=0;html=1;align=left;verticalAlign=top;strokeColor=default;" parent="YDspIKpdxO8EV3Twf1JT-39" vertex="1" connectable="0">
          <mxGeometry x="1032" y="1697" as="geometry" />
        </mxCell>
        <mxCell id="YDspIKpdxO8EV3Twf1JT-42" value="fleet" style="edgeLabel;resizable=0;html=1;align=left;verticalAlign=top;strokeColor=default;" parent="YDspIKpdxO8EV3Twf1JT-39" vertex="1" connectable="0">
          <mxGeometry x="1027" y="1697" as="geometry" />
        </mxCell>
        <mxCell id="YDspIKpdxO8EV3Twf1JT-43" value="" style="html=1;rounded=1;edgeStyle=orthogonalEdgeStyle;dashed=1;startArrow=none;endArrow=openThin;endSize=12;strokeColor=#595959;exitX=0.500;exitY=0.000;exitDx=0;exitDy=0;entryX=0.500;entryY=0.000;entryDx=0;entryDy=0;" parent="1" source="YDspIKpdxO8EV3Twf1JT-7" target="YDspIKpdxO8EV3Twf1JT-10" edge="1">
          <mxGeometry width="50" height="50" relative="1" as="geometry">
            <Array as="points">
              <mxPoint x="887" y="704" />
              <mxPoint x="379" y="704" />
              <mxPoint x="379" y="753" />
              <mxPoint x="379" y="753" />
            </Array>
          </mxGeometry>
        </mxCell>
        <mxCell id="YDspIKpdxO8EV3Twf1JT-44" value="" style="html=1;rounded=1;edgeStyle=orthogonalEdgeStyle;dashed=1;startArrow=none;endArrow=openThin;endSize=12;strokeColor=#595959;exitX=0.431;exitY=0.000;exitDx=0;exitDy=0;entryX=0;entryY=0.38;entryDx=0;entryDy=0;entryPerimeter=0;" parent="1" edge="1">
          <mxGeometry width="50" height="50" relative="1" as="geometry">
            <Array as="points">
              <mxPoint x="862" y="730" />
              <mxPoint x="91" y="730" />
              <mxPoint x="91" y="1567" />
            </Array>
            <mxPoint x="861.884" y="756" as="sourcePoint" />
            <mxPoint x="248.99999999999977" y="1567.06" as="targetPoint" />
          </mxGeometry>
        </mxCell>
        <mxCell id="YDspIKpdxO8EV3Twf1JT-45" value="" style="html=1;rounded=1;edgeStyle=orthogonalEdgeStyle;dashed=1;startArrow=none;endArrow=openThin;endSize=12;strokeColor=#595959;exitX=0.539;exitY=0.003;exitDx=0;exitDy=0;entryX=0.000;entryY=0.269;entryDx=0;entryDy=0;" parent="1" source="YDspIKpdxO8EV3Twf1JT-8" target="YDspIKpdxO8EV3Twf1JT-2" edge="1">
          <mxGeometry width="50" height="50" relative="1" as="geometry">
            <Array as="points">
              <mxPoint x="-186" y="1817" />
              <mxPoint x="130" y="1817" />
              <mxPoint x="130" y="1130" />
              <mxPoint x="249" y="1130" />
            </Array>
          </mxGeometry>
        </mxCell>
        <mxCell id="YDspIKpdxO8EV3Twf1JT-46" value="«create»" style="edgeLabel;resizable=0;html=1;align=left;verticalAlign=top;strokeColor=default;" parent="YDspIKpdxO8EV3Twf1JT-45" vertex="1" connectable="0">
          <mxGeometry x="130" y="1114" as="geometry" />
        </mxCell>
        <mxCell id="YDspIKpdxO8EV3Twf1JT-47" value="" style="html=1;rounded=1;edgeStyle=orthogonalEdgeStyle;dashed=1;startArrow=none;endArrow=openThin;endSize=12;strokeColor=#595959;entryX=1.000;entryY=0.500;entryDx=0;entryDy=0;" parent="1" target="YDspIKpdxO8EV3Twf1JT-4" edge="1">
          <mxGeometry width="50" height="50" relative="1" as="geometry">
            <Array as="points">
              <mxPoint x="50" y="2010" />
              <mxPoint x="50" y="1113" />
            </Array>
            <mxPoint x="10" y="2010" as="sourcePoint" />
          </mxGeometry>
        </mxCell>
        <mxCell id="YDspIKpdxO8EV3Twf1JT-48" value="" style="html=1;rounded=1;edgeStyle=orthogonalEdgeStyle;dashed=1;startArrow=none;endArrow=openThin;endSize=12;strokeColor=#595959;" parent="1" edge="1">
          <mxGeometry width="50" height="50" relative="1" as="geometry">
            <Array as="points">
              <mxPoint x="10" y="2030" />
              <mxPoint x="170" y="2030" />
            </Array>
            <mxPoint x="10" y="2030" as="sourcePoint" />
            <mxPoint x="170" y="2030" as="targetPoint" />
          </mxGeometry>
        </mxCell>
        <mxCell id="YDspIKpdxO8EV3Twf1JT-50" value="" style="html=1;rounded=1;edgeStyle=orthogonalEdgeStyle;dashed=1;startArrow=none;endArrow=openThin;endSize=12;strokeColor=#595959;exitX=0.308;exitY=-0.002;exitDx=0;exitDy=0;entryX=0.305;entryY=1.000;entryDx=0;entryDy=0;exitPerimeter=0;" parent="1" source="YDspIKpdxO8EV3Twf1JT-8" target="YDspIKpdxO8EV3Twf1JT-11" edge="1">
          <mxGeometry width="50" height="50" relative="1" as="geometry">
            <Array as="points">
              <mxPoint x="-286" y="1860" />
            </Array>
          </mxGeometry>
        </mxCell>
        <mxCell id="YDspIKpdxO8EV3Twf1JT-51" value="«create»" style="edgeLabel;resizable=0;html=1;align=left;verticalAlign=top;strokeColor=default;" parent="YDspIKpdxO8EV3Twf1JT-50" vertex="1" connectable="0">
          <mxGeometry x="298" y="1744" as="geometry" />
        </mxCell>
        <mxCell id="YDspIKpdxO8EV3Twf1JT-52" value="" style="html=1;rounded=1;edgeStyle=orthogonalEdgeStyle;dashed=1;startArrow=none;endArrow=openThin;endSize=12;strokeColor=#595959;exitX=1.000;exitY=0.500;exitDx=0;exitDy=0;" parent="1" source="YDspIKpdxO8EV3Twf1JT-8" edge="1">
          <mxGeometry width="50" height="50" relative="1" as="geometry">
            <Array as="points">
              <mxPoint x="90" y="1989" />
              <mxPoint x="90" y="1650" />
              <mxPoint x="247" y="1650" />
            </Array>
            <mxPoint x="250" y="1650" as="targetPoint" />
          </mxGeometry>
        </mxCell>
        <mxCell id="YDspIKpdxO8EV3Twf1JT-53" value="" style="html=1;rounded=1;edgeStyle=orthogonalEdgeStyle;dashed=1;startArrow=none;endArrow=openThin;endSize=12;strokeColor=#595959;exitX=0.430;exitY=0.000;exitDx=0;exitDy=0;entryX=0.000;entryY=0.269;entryDx=0;entryDy=0;" parent="1" source="YDspIKpdxO8EV3Twf1JT-8" target="YDspIKpdxO8EV3Twf1JT-13" edge="1">
          <mxGeometry width="50" height="50" relative="1" as="geometry">
            <Array as="points">
              <mxPoint x="-233" y="1754" />
              <mxPoint x="190" y="1754" />
              <mxPoint x="190" y="1246" />
            </Array>
          </mxGeometry>
        </mxCell>
        <mxCell id="YDspIKpdxO8EV3Twf1JT-54" value="«create»" style="edgeLabel;resizable=0;html=1;align=left;verticalAlign=top;strokeColor=default;rotation=90;" parent="YDspIKpdxO8EV3Twf1JT-53" vertex="1" connectable="0">
          <mxGeometry x="210" y="1340" as="geometry" />
        </mxCell>
        <mxCell id="YDspIKpdxO8EV3Twf1JT-55" value="" style="html=1;rounded=1;edgeStyle=orthogonalEdgeStyle;dashed=1;startArrow=none;endArrow=openThin;endSize=12;strokeColor=#595959;exitX=0.463;exitY=0.007;exitDx=0;exitDy=0;entryX=0.541;entryY=1.000;entryDx=0;entryDy=0;" parent="1" source="YDspIKpdxO8EV3Twf1JT-8" target="YDspIKpdxO8EV3Twf1JT-14" edge="1">
          <mxGeometry width="50" height="50" relative="1" as="geometry">
            <Array as="points">
              <mxPoint x="-219" y="1773" />
              <mxPoint x="902" y="1773" />
            </Array>
          </mxGeometry>
        </mxCell>
        <mxCell id="YDspIKpdxO8EV3Twf1JT-60" value="" style="html=1;rounded=1;edgeStyle=orthogonalEdgeStyle;dashed=1;startArrow=none;endArrow=openThin;endSize=12;strokeColor=#595959;exitX=1.000;exitY=0.500;exitDx=0;exitDy=0;entryX=0.500;entryY=1.000;entryDx=0;entryDy=0;" parent="1" source="YDspIKpdxO8EV3Twf1JT-9" target="YDspIKpdxO8EV3Twf1JT-11" edge="1">
          <mxGeometry width="50" height="50" relative="1" as="geometry">
            <Array as="points">
              <mxPoint x="510" y="1393" />
              <mxPoint x="537" y="1393" />
              <mxPoint x="537" y="1730" />
              <mxPoint x="-203" y="1730" />
            </Array>
          </mxGeometry>
        </mxCell>
        <mxCell id="YDspIKpdxO8EV3Twf1JT-61" value="«create»" style="edgeLabel;resizable=0;html=1;align=left;verticalAlign=top;strokeColor=default;" parent="YDspIKpdxO8EV3Twf1JT-60" vertex="1" connectable="0">
          <mxGeometry x="-218" y="1708" as="geometry" />
        </mxCell>
        <mxCell id="YDspIKpdxO8EV3Twf1JT-62" value="" style="html=1;rounded=1;edgeStyle=orthogonalEdgeStyle;dashed=1;startArrow=none;endArrow=openThin;endSize=12;strokeColor=#595959;exitX=-0.004;exitY=0.904;exitDx=0;exitDy=0;entryX=0.002;entryY=0.127;entryDx=0;entryDy=0;entryPerimeter=0;exitPerimeter=0;" parent="1" source="YDspIKpdxO8EV3Twf1JT-9" target="YDspIKpdxO8EV3Twf1JT-12" edge="1">
          <mxGeometry width="50" height="50" relative="1" as="geometry">
            <Array as="points">
              <mxPoint x="230" y="1459" />
              <mxPoint x="230" y="1519" />
            </Array>
          </mxGeometry>
        </mxCell>
        <mxCell id="YDspIKpdxO8EV3Twf1JT-63" value="" style="html=1;rounded=1;edgeStyle=orthogonalEdgeStyle;dashed=1;startArrow=none;endArrow=openThin;endSize=12;strokeColor=#595959;entryX=1;entryY=0.75;entryDx=0;entryDy=0;exitX=1.005;exitY=0.207;exitDx=0;exitDy=0;exitPerimeter=0;" parent="1" source="YDspIKpdxO8EV3Twf1JT-9" target="YDspIKpdxO8EV3Twf1JT-13" edge="1">
          <mxGeometry width="50" height="50" relative="1" as="geometry">
            <Array as="points">
              <mxPoint x="540" y="1355" />
              <mxPoint x="540" y="1280" />
            </Array>
            <mxPoint x="249" y="1366" as="sourcePoint" />
          </mxGeometry>
        </mxCell>
        <mxCell id="YDspIKpdxO8EV3Twf1JT-64" value="«create»" style="edgeLabel;resizable=0;html=1;align=left;verticalAlign=top;strokeColor=default;rotation=90;" parent="YDspIKpdxO8EV3Twf1JT-63" vertex="1" connectable="0">
          <mxGeometry x="172" y="1340" as="geometry" />
        </mxCell>
        <mxCell id="YDspIKpdxO8EV3Twf1JT-65" value="" style="html=1;rounded=1;edgeStyle=orthogonalEdgeStyle;dashed=1;startArrow=none;endArrow=openThin;endSize=12;strokeColor=#595959;exitX=1.000;exitY=0.391;exitDx=0;exitDy=0;entryX=0.619;entryY=1;entryDx=0;entryDy=0;entryPerimeter=0;" parent="1" source="YDspIKpdxO8EV3Twf1JT-9" target="YDspIKpdxO8EV3Twf1JT-14" edge="1">
          <mxGeometry width="50" height="50" relative="1" as="geometry">
            <Array as="points">
              <mxPoint x="510" y="1378" />
              <mxPoint x="552" y="1378" />
              <mxPoint x="552" y="1750" />
              <mxPoint x="930" y="1750" />
              <mxPoint x="930" y="1682" />
            </Array>
          </mxGeometry>
        </mxCell>
        <mxCell id="YDspIKpdxO8EV3Twf1JT-66" value="" style="html=1;rounded=1;edgeStyle=orthogonalEdgeStyle;dashed=1;startArrow=none;endArrow=openThin;endSize=12;strokeColor=#595959;exitX=0.000;exitY=0.574;exitDx=0;exitDy=0;entryX=0.000;entryY=0.500;entryDx=0;entryDy=0;" parent="1" source="YDspIKpdxO8EV3Twf1JT-11" target="YDspIKpdxO8EV3Twf1JT-3" edge="1">
          <mxGeometry width="50" height="50" relative="1" as="geometry">
            <Array as="points">
              <mxPoint x="-479" y="1510" />
              <mxPoint x="-479" y="839" />
              <mxPoint x="-416" y="839" />
            </Array>
          </mxGeometry>
        </mxCell>
        <mxCell id="YDspIKpdxO8EV3Twf1JT-67" value="«create»" style="edgeLabel;resizable=0;html=1;align=left;verticalAlign=top;strokeColor=default;" parent="YDspIKpdxO8EV3Twf1JT-66" vertex="1" connectable="0">
          <mxGeometry x="-495" y="800" as="geometry" />
        </mxCell>
        <mxCell id="YDspIKpdxO8EV3Twf1JT-68" value="" style="html=1;rounded=1;edgeStyle=orthogonalEdgeStyle;dashed=1;startArrow=none;endArrow=openThin;endSize=12;strokeColor=#595959;exitX=0.25;exitY=0;exitDx=0;exitDy=0;entryX=0.25;entryY=1;entryDx=0;entryDy=0;" parent="1" source="YDspIKpdxO8EV3Twf1JT-11" target="YDspIKpdxO8EV3Twf1JT-4" edge="1">
          <mxGeometry width="50" height="50" relative="1" as="geometry">
            <Array as="points">
              <mxPoint x="-309" y="1260" />
              <mxPoint x="-309" y="1260" />
            </Array>
          </mxGeometry>
        </mxCell>
        <mxCell id="YDspIKpdxO8EV3Twf1JT-69" value="" style="html=1;rounded=1;edgeStyle=orthogonalEdgeStyle;dashed=1;startArrow=none;endArrow=openThin;endSize=12;strokeColor=#595959;exitX=0.000;exitY=0.537;exitDx=0;exitDy=0;entryX=0.000;entryY=0.500;entryDx=0;entryDy=0;" parent="1" source="YDspIKpdxO8EV3Twf1JT-11" target="YDspIKpdxO8EV3Twf1JT-5" edge="1">
          <mxGeometry width="50" height="50" relative="1" as="geometry">
            <Array as="points">
              <mxPoint x="-464" y="1495" />
              <mxPoint x="-464" y="960" />
              <mxPoint x="-416" y="960" />
            </Array>
          </mxGeometry>
        </mxCell>
        <mxCell id="YDspIKpdxO8EV3Twf1JT-70" value="" style="html=1;rounded=1;edgeStyle=orthogonalEdgeStyle;dashed=1;startArrow=none;endArrow=openThin;endSize=12;strokeColor=#595959;exitX=0.465;exitY=0.000;exitDx=0;exitDy=0;entryX=0.000;entryY=0.549;entryDx=0;entryDy=0;" parent="1" source="YDspIKpdxO8EV3Twf1JT-11" target="YDspIKpdxO8EV3Twf1JT-10" edge="1">
          <mxGeometry width="50" height="50" relative="1" as="geometry">
            <Array as="points">
              <mxPoint x="-218" y="1244" />
              <mxPoint x="112" y="1244" />
              <mxPoint x="112" y="919" />
            </Array>
          </mxGeometry>
        </mxCell>
        <mxCell id="YDspIKpdxO8EV3Twf1JT-71" value="«create»" style="edgeLabel;resizable=0;html=1;align=left;verticalAlign=top;strokeColor=default;" parent="YDspIKpdxO8EV3Twf1JT-70" vertex="1" connectable="0">
          <mxGeometry x="20" y="1052" as="geometry" />
        </mxCell>
        <mxCell id="YDspIKpdxO8EV3Twf1JT-73" value="" style="html=1;rounded=1;edgeStyle=orthogonalEdgeStyle;dashed=1;startArrow=none;endArrow=openThin;endSize=12;strokeColor=#595959;exitX=1;exitY=0.75;exitDx=0;exitDy=0;entryX=0.000;entryY=0.500;entryDx=0;entryDy=0;" parent="1" source="YDspIKpdxO8EV3Twf1JT-11" target="YDspIKpdxO8EV3Twf1JT-12" edge="1">
          <mxGeometry width="50" height="50" relative="1" as="geometry">
            <Array as="points">
              <mxPoint x="10" y="1589" />
            </Array>
          </mxGeometry>
        </mxCell>
        <mxCell id="YDspIKpdxO8EV3Twf1JT-74" value="" style="html=1;rounded=1;edgeStyle=orthogonalEdgeStyle;dashed=0;startArrow=diamondThinstartSize=12;endArrow=openThin;endSize=12;strokeColor=#595959;exitX=0.693;exitY=1.000;exitDx=0;exitDy=0;entryX=0.153;entryY=0.999;entryDx=0;entryDy=0;entryPerimeter=0;" parent="1" source="YDspIKpdxO8EV3Twf1JT-11" target="YDspIKpdxO8EV3Twf1JT-14" edge="1">
          <mxGeometry width="50" height="50" relative="1" as="geometry">
            <Array as="points">
              <mxPoint x="-121" y="1713" />
              <mxPoint x="760" y="1713" />
              <mxPoint x="760" y="1681" />
            </Array>
          </mxGeometry>
        </mxCell>
        <mxCell id="YDspIKpdxO8EV3Twf1JT-75" value="1" style="edgeLabel;resizable=0;html=1;align=left;verticalAlign=top;strokeColor=default;" parent="YDspIKpdxO8EV3Twf1JT-74" vertex="1" connectable="0">
          <mxGeometry x="-121" y="1687" as="geometry" />
        </mxCell>
        <mxCell id="YDspIKpdxO8EV3Twf1JT-76" value="*" style="edgeLabel;resizable=0;html=1;align=left;verticalAlign=top;strokeColor=default;" parent="YDspIKpdxO8EV3Twf1JT-74" vertex="1" connectable="0">
          <mxGeometry x="878" y="1698" as="geometry" />
        </mxCell>
        <mxCell id="YDspIKpdxO8EV3Twf1JT-77" value="vehicles" style="edgeLabel;resizable=0;html=1;align=left;verticalAlign=top;strokeColor=default;" parent="YDspIKpdxO8EV3Twf1JT-74" vertex="1" connectable="0">
          <mxGeometry x="887" y="1698" as="geometry" />
        </mxCell>
        <mxCell id="YDspIKpdxO8EV3Twf1JT-78" value="" style="html=1;rounded=1;edgeStyle=orthogonalEdgeStyle;dashed=1;startArrow=none;endArrow=openThin;endSize=12;strokeColor=#595959;entryX=0.000;entryY=0.500;entryDx=0;entryDy=0;" parent="1" edge="1">
          <mxGeometry width="50" height="50" relative="1" as="geometry">
            <Array as="points">
              <mxPoint x="610" y="1279" />
              <mxPoint x="610" y="1589" />
            </Array>
            <mxPoint x="550" y="1280" as="sourcePoint" />
            <mxPoint x="264" y="1588.5000000000002" as="targetPoint" />
          </mxGeometry>
        </mxCell>
        <mxCell id="YDspIKpdxO8EV3Twf1JT-79" value="" style="html=1;rounded=1;edgeStyle=orthogonalEdgeStyle;dashed=0;startArrow=none;endArrow=block;endSize=12;strokeColor=#000082;exitX=1.000;exitY=0.500;exitDx=0;exitDy=0;entryX=0.000;entryY=0.184;entryDx=0;entryDy=0;" parent="1" source="YDspIKpdxO8EV3Twf1JT-13" target="YDspIKpdxO8EV3Twf1JT-14" edge="1">
          <mxGeometry width="50" height="50" relative="1" as="geometry">
            <Array as="points">
              <mxPoint x="553" y="1259" />
              <mxPoint x="553" y="1231" />
            </Array>
          </mxGeometry>
        </mxCell>
        <mxCell id="YDspIKpdxO8EV3Twf1JT-80" value="" style="html=1;rounded=1;edgeStyle=orthogonalEdgeStyle;dashed=1;startArrow=none;endArrow=block;endSize=12;strokeColor=#008200;exitX=0.541;exitY=0.000;exitDx=0;exitDy=0;entryX=0.541;entryY=1.000;entryDx=0;entryDy=0;" parent="1" source="YDspIKpdxO8EV3Twf1JT-14" target="YDspIKpdxO8EV3Twf1JT-7" edge="1">
          <mxGeometry width="50" height="50" relative="1" as="geometry">
            <Array as="points" />
          </mxGeometry>
        </mxCell>
        <mxCell id="YDspIKpdxO8EV3Twf1JT-81" value="" style="html=1;rounded=1;edgeStyle=orthogonalEdgeStyle;dashed=0;startArrow=diamondThinstartSize=12;endArrow=openThin;endSize=12;strokeColor=#595959;exitX=0.500;exitY=0.000;exitDx=0;exitDy=0;entryX=0.500;entryY=1.000;entryDx=0;entryDy=0;" parent="1" source="YDspIKpdxO8EV3Twf1JT-14" target="YDspIKpdxO8EV3Twf1JT-10" edge="1">
          <mxGeometry width="50" height="50" relative="1" as="geometry">
            <Array as="points">
              <mxPoint x="887" y="1069" />
              <mxPoint x="379" y="1069" />
            </Array>
          </mxGeometry>
        </mxCell>
        <mxCell id="YDspIKpdxO8EV3Twf1JT-82" value="1" style="edgeLabel;resizable=0;html=1;align=left;verticalAlign=top;strokeColor=default;" parent="YDspIKpdxO8EV3Twf1JT-81" vertex="1" connectable="0">
          <mxGeometry x="368" y="1052" as="geometry" />
        </mxCell>
        <mxCell id="YDspIKpdxO8EV3Twf1JT-83" value="*" style="edgeLabel;resizable=0;html=1;align=left;verticalAlign=top;strokeColor=default;" parent="YDspIKpdxO8EV3Twf1JT-81" vertex="1" connectable="0">
          <mxGeometry x="370" y="1019" as="geometry" />
        </mxCell>
        <mxCell id="YDspIKpdxO8EV3Twf1JT-84" value="passengers" style="edgeLabel;resizable=0;html=1;align=left;verticalAlign=top;strokeColor=default;" parent="YDspIKpdxO8EV3Twf1JT-81" vertex="1" connectable="0">
          <mxGeometry x="379" y="1030" as="geometry" />
        </mxCell>
        <mxCell id="YDspIKpdxO8EV3Twf1JT-85" value="" style="html=1;rounded=1;edgeStyle=orthogonalEdgeStyle;dashed=0;startArrow=diamondThinstartSize=12;endArrow=openThin;endSize=12;strokeColor=#595959;exitX=0.000;exitY=0.804;exitDx=0;exitDy=0;entryX=1.000;entryY=0.420;entryDx=0;entryDy=0;" parent="1" source="YDspIKpdxO8EV3Twf1JT-14" target="YDspIKpdxO8EV3Twf1JT-12" edge="1">
          <mxGeometry width="50" height="50" relative="1" as="geometry">
            <Array as="points" />
          </mxGeometry>
        </mxCell>
        <mxCell id="YDspIKpdxO8EV3Twf1JT-86" value="1" style="edgeLabel;resizable=0;html=1;align=left;verticalAlign=top;strokeColor=default;" parent="YDspIKpdxO8EV3Twf1JT-85" vertex="1" connectable="0">
          <mxGeometry x="677" y="1569" as="geometry" />
        </mxCell>
        <mxCell id="YDspIKpdxO8EV3Twf1JT-87" value="*" style="edgeLabel;resizable=0;html=1;align=left;verticalAlign=top;strokeColor=default;" parent="YDspIKpdxO8EV3Twf1JT-85" vertex="1" connectable="0">
          <mxGeometry x="532" y="1573" as="geometry" />
        </mxCell>
        <mxCell id="YDspIKpdxO8EV3Twf1JT-88" value="route" style="edgeLabel;resizable=0;html=1;align=left;verticalAlign=top;strokeColor=default;" parent="YDspIKpdxO8EV3Twf1JT-85" vertex="1" connectable="0">
          <mxGeometry x="668" y="1553" as="geometry" />
        </mxCell>
      </root>
    </mxGraphModel>
  </diagram>
</mxfile>
